<svg height="510pt" viewBox="-7 0 510 510.82053" width="510pt" xmlns="http://www.w3.org/2000/svg"><path d="m459.925781 374.636719c2.191407.007812 4.371094-.351563 6.445313-1.0625-3.179688 6.710937-6.707032 12.890625-9.886719 18.539062-8.539063 12.808594-15.394531 26.664063-20.390625 41.226563-11.652344 46.960937-27.632812 64.175781-40.519531 71.324218-5.589844 3.988282-12.289063 6.117188-19.15625 6.09375-34.835938 1.503907-65.074219-23.796874-69.738281-58.351562-.441407-3.441406-.96875-6.796875-1.5-10.238281-4.679688.527343-9.355469 1.058593-14.035157 1.675781-43.519531 5.648438-86.777343 13.949219-130.207031 19.949219-29.21875 4.0625-61.792969 10.59375-86.6875-10.328125-19.773438-16.683594-17.300781-42.726563-18.625-65.851563-1.570312-26.78125-6.703125-53.234375-15.273438-78.65625-8.121093-24.273437-20.746093-46.695312-29.042968-70.882812-.882813-2.648438-1.765625-5.210938-2.382813-7.769531.101563-.273438.335938-.472657.617188-.53125 2.636719.0625 5.152343-1.113282 6.796875-3.175782.550781-.710937 1.171875-1.363281 1.855468-1.941406-3.136718 1.238281-6.054687 2.964844-8.652343 5.117188-.265625.015624-.535157-.015626-.792969-.085938-4.050781-.359375-7.3125-3.476562-7.855469-7.503906-1.101562-7.027344-.3125-14.21875 2.292969-20.832032.527344-1.335937 1.148438-2.636718 1.855469-3.886718v-.085938c1.0625-15.210937 6.019531-29.894531 14.386719-42.640625 2.382812-3.707031 4.769531-7.414062 7.238281-11.121093-5.535157-4.460938-10.675781-9.390626-15.359375-14.742188-21.1875-24.011719-7.414063-78.742188 30.898437-109.636719 19.054688-15.894531 46.039063-18.121093 67.441407-5.5625h.089843c23.242188-12.304687 49.9375-16.46875 75.828125-11.828125 9.773438 1.699219 19.398438 4.179688 28.777344 7.414063 100.8125-14.125 225.984375 11.386719 257.675781 137.269531 2.03125 7.945312 3.886719 15.625 5.472657 23.039062 3.972656 18.449219 6.800781 35.308594 8.742187 50.933594.265625 1.855469.441406 3.710938.617187 5.5625 1.960938 17.4375 2.730469 34.984375 2.292969 52.523438h-.085937zm0 0" fill="#f18d46"/><path d="m486.851562 226.066406c-104.960937-73.796875-174.699218-70.707031-196.324218-62.941406 6.765625-12.058594 12.039062-24.890625 15.710937-38.222656 2.460938-8.324219 3.210938-17.0625 2.207031-25.6875h.175782c19.953125-3.265625 83.15625-5.472656 168.871094 70.355468 3.972656 18.449219 6.800781 35.308594 8.742187 50.933594.265625 1.855469.441406 3.710938.617187 5.5625zm0 0" fill="#f9eab0"/><path d="m423.910156 314.167969c0 33.367187 16.15625 60.46875 36.015625 60.46875 2.191407.007812 4.371094-.351563 6.445313-1.0625-3.179688 6.710937-6.707032 12.890625-9.886719 18.539062-10.09375 10.707031-24.042969 16.9375-38.753906 17.300781-37.074219 0-67.175781-42.28125-67.175781-94.363281 0-52.171875 30.101562-94.28125 67.175781-94.28125 21.1875 0 40.078125 13.773438 52.261719 35.222657l-.089844.089843c-3.09375-1.566406-6.507813-2.382812-9.976563-2.382812-19.859375 0-36.015625 27.011719-36.015625 60.46875zm0 0" fill="#cb8252"/><path d="m496.03125 314.167969c0 26.65625-10.328125 49.34375-24.628906 57.289062-1.558594.957031-3.253906 1.671875-5.03125 2.117188-2.074219.710937-4.253906 1.070312-6.445313 1.0625-19.859375 0-36.015625-27.101563-36.015625-60.46875 0-33.457031 16.15625-60.46875 36.015625-60.46875 3.46875 0 6.882813.816406 9.976563 2.382812 8.886718 4.953125 15.6875 12.945313 19.15625 22.507813 4.746094 11.253906 7.121094 23.363281 6.972656 35.578125zm0 0" fill="#805333"/><path d="m308.445312 99.214844c-3.46875-21.777344-14.886718-41.496094-32.042968-55.347656-18.199219-15.519532-39.292969-27.28125-62.058594-34.605469-9.378906-3.234375-19.003906-5.714844-28.777344-7.414063-25.890625-4.640625-52.585937-.476562-75.828125 11.828125h-.089843c-18.683594 9.851563-33.671876 25.492188-42.726563 44.578125-7.738281 16.53125-9.332031 35.277344-4.5 52.878906.628906 2.394532 1.398437 4.753907 2.292969 7.0625 10.507812 28.421876 36.988281 47.226563 64.265625 58.789063 81.566406 34.605469 132.148437 35.753906 161.546875-13.859375 6.765625-12.058594 12.039062-24.890625 15.710937-38.222656 2.460938-8.324219 3.210938-17.0625 2.207031-25.6875zm-44.667968 29.21875c-3.058594 9.015625-7.789063 17.371094-13.945313 24.628906-7.105469 7.398438-17.136719 11.25-27.367187 10.503906-18.980469 0-45.285156-7.589844-80.417969-23.214844-23.484375-10.417968-38.222656-23.480468-43.875-38.664062-4.46875-11.910156-3.566406-25.175781 2.472656-36.371094 8.027344-13.503906 20.328125-23.941406 34.957031-29.660156 20.671876-7.53125 43.417969-7.027344 63.734376 1.414062 10.851562 3.976563 21.289062 9 31.164062 15.003907 16.328125 9.710937 34.601562 22.777343 38.839844 42.375 1.757812 11.628906-.1875 23.519531-5.5625 33.984375zm0 0" fill="#805333"/><path d="m305.179688 442.167969c-4.679688.527343-9.355469 1.058593-14.035157 1.675781-43.519531 5.648438-86.777343 13.949219-130.207031 19.949219-29.21875 4.0625-61.792969 10.59375-86.6875-10.328125-19.773438-16.683594-17.300781-42.726563-18.625-65.851563-1.570312-26.78125-6.703125-53.234375-15.273438-78.65625-8.121093-24.273437-20.746093-46.695312-29.042968-70.882812-.882813-2.648438-1.765625-5.210938-2.382813-7.769531-.089843-.175782-.089843-.441407-.175781-.617188.257812.070312.527344.101562.792969.085938 2.636719.0625 5.152343-1.113282 6.796875-3.175782.550781-.710937 1.171875-1.363281 1.855468-1.941406 18.183594-19.246094 51.816407-14.300781 74.503907-6.976562 27.304687 8.398437 53.855469 19.089843 79.359375 31.957031 12.390625 6.316406 24.308594 13.515625 35.664062 21.539062 1.5 1.058594 2.914063 2.117188 4.414063 3.179688 29.023437 21.210937 52.667969 48.9375 69.03125 80.949219 12.648437 27.464843 20.757812 56.800781 24.011719 86.863281zm0 0" fill="#2c2f38"/><path d="m291.144531 443.84375c-43.519531 5.648438-86.777343 13.949219-130.207031 19.949219-29.21875 4.0625-61.792969 10.59375-86.6875-10.328125-19.773438-16.683594-17.300781-42.726563-18.625-65.851563-1.570312-26.78125-6.703125-53.234375-15.273438-78.65625-8.121093-24.273437-20.746093-46.695312-29.042968-70.882812-.882813-2.648438-1.765625-5.210938-2.382813-7.769531.101563-.273438.335938-.472657.617188-.53125 2.597656-2.152344 5.515625-3.878907 8.652343-5.117188 18.625-8.210938 43.609376-3.886719 61.617188 1.941406 27.304688 8.398438 53.851562 19.085938 79.359375 31.953125 12.386719 6.316407 24.308594 13.515625 35.664063 21.542969 1.5 1.058594 2.910156 2.117188 4.414062 3.175781 29.023438 21.214844 52.667969 48.9375 69.03125 80.949219 11.800781 25.160156 19.519531 52.035156 22.863281 79.625zm0 0" fill="#464f5d"/><path d="m376.417969 510.757812c-34.835938 1.503907-65.074219-23.796874-69.738281-58.351562-.441407-3.441406-.96875-6.796875-1.5-10.238281-3.253907-30.0625-11.363282-59.398438-24.011719-86.863281-16.363281-32.011719-40.007813-59.738282-69.03125-80.949219-1.5-1.0625-2.914063-2.121094-4.414063-3.179688-11.355468-8.023437-23.273437-15.222656-35.664062-21.539062-25.503906-12.867188-52.054688-23.558594-79.359375-31.957031-23.394531-7.589844-58.527344-12.621094-76.359375 8.917968-1.808594 2.292969-4.691406 3.46875-7.589844 3.089844-4.050781-.359375-7.3125-3.476562-7.855469-7.503906-1.101562-7.027344-.3125-14.21875 2.292969-20.832032.527344-1.335937 1.148438-2.636718 1.855469-3.886718v-.085938c16.59375-31.867187 64-25.25 93.304687-16.773437 30.355469 8.335937 60.019532 19.019531 88.71875 31.957031 13.742188 6.269531 27.042969 13.464844 39.8125 21.539062 1.675782 1.058594 3.265625 2.117188 4.945313 3.175782 31.75 20.507812 58.191406 48.25 77.152343 80.949218 21.183594 37.519532 25.421876 78.917969 32.132813 120.761719h-.179687c7.859374 49.609375 19.953124 66.648438 31.164062 70.796875 1.386719.523438 2.84375.851563 4.324219.972656zm0 0" fill="#805333"/><path d="m263.777344 128.433594c-3.058594 9.015625-7.789063 17.371094-13.945313 24.628906-7.105469 7.398438-17.136719 11.25-27.367187 10.503906-18.980469 0-45.285156-7.589844-80.417969-23.214844-1.148437-.53125-2.207031-.972656-3.265625-1.414062-5.476562-2.585938-10.757812-5.566406-15.804688-8.914062-3.910156-2.503907-7.574218-5.371094-10.945312-8.5625-4.476562-3.949219-8.238281-8.636719-11.121094-13.859376-1.039062-1.910156-1.953125-3.886718-2.738281-5.914062-4.46875-11.910156-3.566406-25.175781 2.472656-36.371094 8.027344-13.503906 20.328125-23.941406 34.957031-29.660156 13.207032-5.195312 27.582032-6.6875 41.578126-4.324219h.089843c6.382813 1.003907 12.671875 2.542969 18.800781 4.589844 1.058594.351563 2.207032.792969 3.265626 1.148437 3.914062 1.367188 7.746093 2.957032 11.476562 4.765626 5.578125 2.429687 11.003906 5.199218 16.242188 8.296874 1.148437.617188 2.296874 1.234376 3.445312 1.941407 16.328125 9.710937 34.601562 22.777343 38.839844 42.375 1.757812 11.628906-.1875 23.519531-5.5625 33.984375zm0 0" fill="#67b9cc"/><path d="m109.648438 13.675781c-18.683594 9.851563-33.671876 25.492188-42.726563 44.578125-7.738281 16.53125-9.332031 35.277344-4.5 52.878906.628906 2.394532 1.398437 4.753907 2.292969 7.0625h-.085938c-9.949218 11.886719-23.089844 20.675782-37.871094 25.332032l-.089843.089844c-5.535157-4.460938-10.675781-9.390626-15.359375-14.742188-21.1875-24.011719-7.414063-78.742188 30.898437-109.636719 19.054688-15.894531 46.039063-18.121093 67.441407-5.5625zm0 0" fill="#7f6e5d"/><path d="m9.542969 229.773438c-.28125.058593-.515625.257812-.617188.53125-.089843-.175782-.089843-.441407-.175781-.617188.257812.070312.527344.101562.792969.085938zm0 0" fill="#2c2f38"/><path d="m18.195312 224.65625c-.683593.578125-1.304687 1.230469-1.855468 1.941406-1.644532 2.0625-4.160156 3.238282-6.796875 3.175782 2.597656-2.152344 5.515625-3.878907 8.652343-5.117188zm0 0" fill="#464f5d"/><path d="m18.195312 224.65625c-.683593.578125-1.304687 1.230469-1.855468 1.941406-1.644532 2.0625-4.160156 3.238282-6.796875 3.175782 2.597656-2.152344 5.515625-3.878907 8.652343-5.117188zm0 0" fill="#805333"/><path d="m460.015625 334.824219c-4.875 0-8.828125-3.953125-8.828125-8.828125v-26.484375c0-4.875 3.953125-8.828125 8.828125-8.828125s8.828125 3.953125 8.828125 8.828125v26.484375c0 4.875-3.953125 8.828125-8.828125 8.828125zm0 0" fill="#f9eab0"/><g fill="#b0d3f0"><path d="m196.070312 35.921875c-.382812 1.4375-1.144531 2.75-2.207031 3.792969l-81.65625 81.65625c-.085937.089844-.085937.089844-.175781.089844-4.476562-3.949219-8.238281-8.636719-11.121094-13.859376l76.269532-76.269531h.089843c6.382813 1.003907 12.671875 2.542969 18.800781 4.589844zm0 0"/><path d="m227.054688 50.132812c-.390626.75-.894532 1.4375-1.5 2.03125l-86.773438 86.773438c-5.476562-2.585938-10.757812-5.566406-15.804688-8.914062.363282-.617188.808594-1.179688 1.324219-1.679688l86.511719-86.507812c5.578125 2.429687 11.003906 5.199218 16.242188 8.296874zm0 0"/></g></svg>