<svg height="511pt" viewBox="0 -31 511.99894 511" width="511pt" xmlns="http://www.w3.org/2000/svg"><path d="m494.300781 330.46875-72.292969 29.996094 36.894532 30c-18.296875 23.097656-40.796875 42.894531-67.191406 57.894531-2.101563 1.5-4.800782 2.097656-7.5 2.097656h-309.171876c-5.097656 0-9.597656-2.398437-12.597656-6.597656l-55.496094-83.691406c2.402344 0 4.800782.296875 7.199219.296875l242.878907-62.09375 9.898437-2.699219v-80.390625l-9.898437-4.5-195.480469-89.09375c39.292969-68.691406 113.589843-115.488281 195.480469-120.589844 5.097656-.296875 9.898437-.597656 14.996093-.597656 132.289063 0 239.980469 107.6875 239.980469 239.976562 0 31.199219-6.300781 61.796876-17.699219 89.992188zm0 0" fill="#ec5569"/><path d="m494.300781 330.46875-72.292969 29.996094 36.894532 30c-18.296875 23.097656-40.796875 42.894531-67.191406 57.894531-2.101563 1.5-4.800782 2.097656-7.5 2.097656h-127.1875v-152.085937l9.898437-2.699219v-80.390625l-9.898437-4.5v-209.683594c5.097656-.296875 9.898437-.597656 14.996093-.597656 132.289063 0 239.976563 107.6875 239.976563 239.976562.003906 31.199219-6.296875 61.796876-17.695313 89.992188zm0 0" fill="#e63950"/><g fill="#444"><path d="m452.003906 255.476562c0 8.285157-6.714844 15-14.996094 15-8.285156 0-15-6.714843-15-15 0-8.285156 6.714844-15 15-15 8.28125 0 14.996094 6.714844 14.996094 15zm0 0"/><path d="m452.003906 195.480469c0 8.285156-6.714844 15-14.996094 15-8.285156 0-15-6.714844-15-15 0-8.28125 6.714844-14.996094 15-14.996094 8.28125 0 14.996094 6.714844 14.996094 14.996094zm0 0"/><path d="m392.011719 330.46875c-16.570313 0-30 13.429688-30 29.996094s13.429687 30 30 30h66.855469c14.597656-18.230469 26.589843-38.371094 35.371093-59.996094zm0 0"/><path d="m257.023438 153.183594-29.996094 87.894531 29.996094 86.992187c24.296874-7.800781 49.496093-17.996093 69.894531-32.398437v-110.390625c-20.101563-14.097656-45.597657-24.296875-69.894531-32.097656zm0 0"/></g><path d="m242.023438 148.386719c-49.792969-14.398438-113.585938-23.695313-180.480469-26.699219-12.601563 22.199219-22.199219 46.496094-27 72.894531l-34.195313 147.585938c-.902344 3.898437 0 8.101562 2.101563 11.699219l4.496093 6.300781c2.402344 0 4.800782.300781 7.199219.300781 84.296875 0 166.085938-10.199219 227.878907-27.597656 5.101562-1.5 9.902343-3 15-4.800782v-174.886718c-5.101563-1.796875-10.199219-3.296875-15-4.796875zm0 0" fill="#5a5a5a"/><path d="m332.015625 300.472656c-33.085937 0-59.996094-26.90625-59.996094-59.996094 0-33.085937 26.910157-59.992187 59.996094-59.992187 33.089844 0 59.996094 26.90625 59.996094 59.992187 0 33.089844-26.910157 59.996094-59.996094 59.996094zm0 0" fill="#6e6e6e"/><path d="m332.015625 210.480469c-16.535156 0-29.996094 13.460937-29.996094 29.996093 0 16.539063 13.460938 30 29.996094 30s29.996094-13.460937 29.996094-30c0-16.535156-13.460938-29.996093-29.996094-29.996093zm0 0" fill="#444"/></svg>