<?xml version="1.0" encoding="iso-8859-1"?>
<!-- Generator: Adobe Illustrator 19.0.0, SVG Export Plug-In . SVG Version: 6.00 Build 0)  -->
<svg version="1.1" id="Capa_1" xmlns="http://www.w3.org/2000/svg" xmlns:xlink="http://www.w3.org/1999/xlink" x="0px" y="0px"
	 viewBox="0 0 510.68 510.68" style="enable-background:new 0 0 510.68 510.68;" xml:space="preserve">
<path style="fill:#3E4347;" d="M92.177,120.224c0,0,62.848-95.072,192.352-88.32c82.624,4.304,159.696,47.904,199.872,120.224
	c21.056,37.904,34.304,87.104,20.832,146.352c0,0-19.712,88.272-47.136,125.12c0,0-2.576,16.288-14.56,18
	c0,0-185.968,2.576-333.36,30.848c0,0-90.832,18-89.984-5.136c0,0-30.848-48.848-16.288-151.68
	C18.481,212.768,92.177,120.224,92.177,120.224z"/>
<path style="fill:#5A5F63;" d="M380.849,162.864l-40.144,14.768l-37.488,20.64c0,0-55.024,103.36,0,98.496
	c40.048-3.536,92.016-16.992,117.344-24.048c12.016-3.344,22.848-10.32,29.968-20.56c0.16-0.24,0.336-0.48,0.496-0.72
	c14.448-21.216,11.344-50.272-6.608-68.624c-2.72-2.784-5.472-5.44-8.176-7.936C421.313,161.12,400.145,156.608,380.849,162.864z"/>
<ellipse transform="matrix(-0.8272 -0.562 0.562 -0.8272 629.1664 633.6395)" style="fill:#3F4347;" cx="412.026" cy="220.065" rx="18.977" ry="23.249"/>
<ellipse transform="matrix(-0.8272 -0.5619 0.5619 -0.8272 629.1579 633.5963)" style="fill:#FFFFFF;" cx="412.001" cy="220.059" rx="10.16" ry="12.448"/>
<path style="fill:#65B1EF;" d="M3.921,319.984c-8.656-24.56,30.944-125.104,59.344-174.192c9.408-16.256,25.872-27.52,44.512-29.808
	c35.136-4.32,103.888,3.056,232.928,61.664c0,0-13.712,83.984-43.712,119.12C296.993,296.752,19.841,365.168,3.921,319.984z"/>
<path style="fill:#93979A;" d="M178.705,447.008c-90.56,20.704-158.512,20.288-158.512,20.288
	c-0.864,23.136,89.984,5.136,89.984,5.136c147.392-28.272,333.36-30.848,333.36-30.848c12-1.712,14.56-18,14.56-18
	C433.041,412.24,269.265,426.304,178.705,447.008z"/>
<g>
	<path style="fill:#59A5E0;" d="M208.289,128.032l-188.384,203.6c-8.448-2.464-14.176-6.24-15.984-11.696
		c-2.992-8.32-0.384-25.488,5.584-46.416l144.832-156.528C169.553,118.8,187.361,122.32,208.289,128.032z"/>
	<path style="fill:#59A5E0;" d="M255.345,142.848L77.889,334.752c-11.84,0.656-22.752,0.912-32.496,0.384l185.392-200.48
		C238.577,137.136,246.769,139.872,255.345,142.848z"/>
</g>
<path style="fill:#5A5F63;" d="M82.097,425.328c9.008-14.848,36.672-37.792,69.232-49.12c41.616-15.328,74.048-13.216,98.528-12.224
	c32.48,2.176,60.336,2.304,91.968-4.048c34.224-6.896,62.752-19.44,75.76-28.304c-9.184,13.904-37.168,36.08-70.64,47.024
	c-41.824,14.512-74.496,12.32-98.48,11.28c-31.792-2.128-60.4-2.192-91.648,4.832C123.345,402.192,95.169,415.584,82.097,425.328z"
	/>
<g>
</g>
<g>
</g>
<g>
</g>
<g>
</g>
<g>
</g>
<g>
</g>
<g>
</g>
<g>
</g>
<g>
</g>
<g>
</g>
<g>
</g>
<g>
</g>
<g>
</g>
<g>
</g>
<g>
</g>
</svg>
