<svg id="Layer_1" enable-background="new 0 0 256 256" height="512" viewBox="0 0 256 256" width="512" xmlns="http://www.w3.org/2000/svg"><path d="m134.807 220.458v-67.479c0-2.256 1.829-4.084 4.084-4.084h.55v-2.047-4.992-6.375c0-3.759-3.048-6.807-6.807-6.807h-58.301v77.303c0 10.26 8.317 18.578 18.577 18.578h44.683l.102-.194c-1.657-.516-2.888-2.054-2.888-3.903z" fill="#e0ebfc"/><path d="m137.594 226.553h-44.683c-11.346 0-20.577-9.23-20.577-20.577v-77.303c0-1.104.896-2 2-2h58.3c4.856 0 8.808 3.95 8.808 8.807v13.415c0 1.104-.896 2-2 2h-.55c-1.149 0-2.084.935-2.084 2.084v67.479c0 .917.595 1.717 1.48 1.991.569.176 1.029.597 1.257 1.147s.197 1.174-.082 1.699l-.103.194c-.346.655-1.026 1.064-1.766 1.064zm-61.261-95.88v75.303c0 9.141 7.437 16.577 16.577 16.577h40.265c-.239-.656-.368-1.362-.368-2.095v-67.479c0-2.855 1.977-5.257 4.634-5.909v-11.59c0-2.65-2.156-4.807-4.808-4.807z" fill="#3762cc"/><path d="m137.115 207.741-81.436 12.784c-2.559.402-4.186 2.954-3.471 5.444l4.342 15.113c.644 2.24 2.953 3.562 5.211 2.982l78.681-20.214c4.336-1.114 6.988-5.489 5.969-9.848-.982-4.199-5.036-6.93-9.296-6.261z" fill="#6bdddd"/><path d="m60.661 246.204c-2.749 0-5.237-1.797-6.034-4.57l-4.342-15.113c-.499-1.737-.228-3.608.745-5.132.972-1.524 2.553-2.559 4.339-2.839l81.436-12.784c5.267-.833 10.339 2.591 11.553 7.781 1.256 5.376-2.072 10.867-7.419 12.241l-78.681 20.213c-.535.137-1.071.203-1.597.203zm76.765-36.487-81.437 12.784c-.663.104-1.226.473-1.586 1.038-.361.566-.458 1.232-.272 1.878l4.342 15.113c.347 1.208 1.575 1.91 2.791 1.596l78.68-20.213c3.258-.837 5.285-4.182 4.521-7.456-.741-3.162-3.838-5.251-7.039-4.74zm-.311-1.976h.01z" fill="#3762cc"/><path d="m29.976 128.658v31.569c0 9.211 7.467 16.678 16.678 16.678h72.746c4.9 0 9.649-1.7 13.436-4.81l10.78-8.853c2.324-1.909 3.671-4.758 3.671-7.766v-26.818z" fill="#4671c6"/><path d="m119.4 178.904h-72.746c-10.299 0-18.678-8.379-18.678-18.678v-31.568c0-1.104.896-2 2-2h117.311c1.104 0 2 .896 2 2v26.818c0 3.62-1.604 7.014-4.401 9.312l-10.78 8.853c-4.134 3.394-9.356 5.263-14.706 5.263zm-87.424-48.246v29.568c0 8.094 6.584 14.678 14.678 14.678h72.746c4.426 0 8.747-1.547 12.167-4.355l10.78-8.853c1.869-1.534 2.94-3.802 2.94-6.22v-24.818z" fill="#3762cc"/><path d="m133.673 11.8c-59.275 0-107.327 44.395-107.327 99.159v2.759h102.868c8.256 0 16.068 3.451 21.25 9.389 3.915 4.485 6.049 10.073 6.049 15.833v80.967c48.299-9.675 84.487-49.367 84.487-96.886v-12.063c0-54.763-48.052-99.158-107.327-99.158z" fill="#f9a7a7"/><path d="m156.514 221.907c-.458 0-.907-.157-1.268-.453-.464-.38-.732-.947-.732-1.547v-80.968c0-5.258-1.974-10.413-5.557-14.518-4.829-5.531-12.025-8.704-19.743-8.704h-102.869c-1.104 0-2-.896-2-2v-2.759c0-55.778 49.044-101.158 109.328-101.158 60.283 0 109.327 45.38 109.327 101.159v12.063c0 23.267-8.748 45.98-24.633 63.959-15.63 17.689-37.457 30.079-61.461 34.888-.13.026-.261.038-.392.038zm-128.169-110.189h100.869c8.873 0 17.168 3.672 22.757 10.073 4.219 4.833 6.543 10.923 6.543 17.148v78.5c46.786-10.445 80.486-49.791 80.486-94.418v-12.063c0-53.573-47.25-97.158-105.327-97.158-58.078 0-105.328 43.585-105.328 97.159z" fill="#3762cc"/><path d="m139.227 224.539c12.31-1.016 23.983-4.27 34.606-9.368 5.241-2.515 8.625-7.758 8.625-13.571v-37.73c0-8.271-6.705-14.976-14.976-14.976h-28.59c-2.256 0-4.084 1.829-4.084 4.084v67.479c-.001 2.387 2.04 4.278 4.419 4.082z" fill="#ffea92"/><circle cx="155.868" cy="167.274" fill="#6bdddd" r="7.715"/><circle cx="155.868" cy="198.763" fill="#6bdddd" r="7.715"/><g fill="#3762cc"><path d="m138.896 226.553c-1.516 0-2.995-.572-4.12-1.608-1.251-1.152-1.969-2.787-1.969-4.486v-67.479c0-3.354 2.729-6.084 6.084-6.084h28.59c9.361 0 16.977 7.615 16.977 16.976v37.728c0 6.494-3.831 12.528-9.76 15.373-11.093 5.325-22.973 8.541-35.307 9.56h-.001c-.163.013-.328.02-.494.02zm.331-2.014h.01zm-.335-73.644c-1.149 0-2.084.935-2.084 2.084v67.479c0 .593.241 1.141.679 1.544.433.398.987.595 1.576.544 11.846-.979 23.253-4.066 33.905-9.179 4.55-2.184 7.49-6.803 7.49-11.768v-37.729c0-7.154-5.821-12.976-12.977-12.976h-28.589z"/><path d="m155.868 176.989c-5.356 0-9.715-4.358-9.715-9.715s4.358-9.715 9.715-9.715 9.715 4.358 9.715 9.715-4.358 9.715-9.715 9.715zm0-15.429c-3.151 0-5.715 2.563-5.715 5.715s2.563 5.715 5.715 5.715 5.715-2.563 5.715-5.715-2.563-5.715-5.715-5.715z"/><path d="m155.868 208.479c-5.356 0-9.715-4.358-9.715-9.715s4.358-9.715 9.715-9.715 9.715 4.358 9.715 9.715-4.358 9.715-9.715 9.715zm0-15.43c-3.151 0-5.715 2.563-5.715 5.715s2.563 5.715 5.715 5.715 5.715-2.563 5.715-5.715-2.563-5.715-5.715-5.715z"/></g><path d="m69 165.833c-.768 0-1.535-.293-2.121-.879-1.172-1.172-1.172-3.071 0-4.243l20.536-20.536c1.172-1.171 3.07-1.172 4.242 0s1.172 3.071 0 4.243l-20.536 20.536c-.586.586-1.353.879-2.121.879z" fill="#a4c9ff"/><path d="m47 165.833c-.768 0-1.535-.293-2.121-.879-1.172-1.172-1.172-3.071 0-4.243l20.536-20.536c1.172-1.171 3.07-1.172 4.242 0s1.172 3.071 0 4.243l-20.536 20.536c-.586.586-1.353.879-2.121.879z" fill="#a4c9ff"/><path d="m139.441 135.48v6.375 4.992 2.047h25.222v-2.047-4.992-13.898c0-13.534-10.972-24.506-24.506-24.506h-93.163v-.17h-26.548c-3.008 0-5.446 2.438-5.446 5.446v14.5c0 3.008 2.438 5.446 5.446 5.446h9.076 17.472 85.64c3.76-.001 6.807 3.047 6.807 6.807z" fill="#a4c9ff"/><path d="m164.663 150.895h-25.222c-1.104 0-2-.896-2-2v-13.415c0-2.65-2.156-4.807-4.808-4.807h-112.187c-4.105 0-7.446-3.341-7.446-7.446v-14.5c0-4.105 3.34-7.446 7.446-7.446h26.548c.289 0 .563.061.81.171h92.353c14.615 0 26.506 11.891 26.506 26.506v20.938c0 1.103-.895 1.999-2 1.999zm-23.222-4h21.222v-18.938c0-12.41-10.096-22.506-22.506-22.506h-93.163c-.289 0-.563-.061-.81-.171h-25.738c-1.9 0-3.446 1.546-3.446 3.446v14.5c0 1.9 1.546 3.446 3.446 3.446h112.188c4.856 0 8.808 3.95 8.808 8.807v11.416z" fill="#3762cc"/></svg>