<?xml version="1.0" encoding="iso-8859-1"?>
<!-- Generator: Adobe Illustrator 19.0.0, SVG Export Plug-In . SVG Version: 6.00 Build 0)  -->
<svg version="1.1" id="Layer_1" xmlns="http://www.w3.org/2000/svg" xmlns:xlink="http://www.w3.org/1999/xlink" x="0px" y="0px"
	 viewBox="0 0 512.001 512.001" style="enable-background:new 0 0 512.001 512.001;" xml:space="preserve">
<path style="fill:#2D2D30;" d="M112.925,223.48l-74.23,135.163c-10.769,20.65-7.897,45.774,7.256,63.46l31.683,36.98
	c12.221,14.264,30.066,22.474,48.849,22.474H270.61c31.099,0,60.388-14.566,79.21-39.323
	c34.704-45.648,55.261-102.634,55.124-164.433c-0.07-31.694-5.536-62.023-15.471-90.178L112.925,223.48z"/>
<path style="fill:#1D1D1F;" d="M349.82,442.234c34.704-45.648,55.261-102.634,55.124-164.433
	c-0.07-31.694-5.536-62.023-15.471-90.177L112.926,223.48l-51.538,93.844c-0.703,41.11,5.669,100.59,38.314,158.39
	c8.309,3.805,17.428,5.844,26.781,5.844H270.61C301.709,481.557,330.999,466.99,349.82,442.234z"/>
<path style="fill:#57565C;" d="M17.474,157.441l-0.347,20.812c-0.198,11.856,5.149,23.125,14.457,30.471l95.317,75.223
	c8.764,6.916,11.84,18.827,7.522,29.123l-23.621,56.314c-7.247,17.277-4.763,37.104,6.523,52.059l45.988,58.821
	c11.083,14.175,28.075,22.459,46.068,22.459h172.21c12.676,0,24.366-6.837,30.58-17.885l16.255-28.897L206.37,277.231
	L17.474,157.441z"/>
<path style="fill:#3E3D42;" d="M17.474,157.441l-0.347,20.812c-0.197,11.856,5.149,23.125,14.458,30.471l95.317,75.223
	c8.764,6.916,11.84,18.827,7.522,29.123l-23.621,56.314c-7.247,17.277-4.763,37.104,6.523,52.059l45.988,58.821
	c11.083,14.175,28.075,22.459,46.068,22.459h127.265l-19.197-19.077l-2.133-118.735l-108.945-87.68L17.474,157.441z"/>
<path style="fill:#D1E7F8;" d="M470.474,148.467c0,0,2.937-14.386,5.983-28.523c3.641-16.901-3.68-34.353-18.419-43.389
	C334.096,0.576,226.005,9.623,226.005,9.623c-85.88,2.338-161.78,44.635-209.79,108.966c-13.058,17.498-9.118,42.344,8.501,55.238
	l126.364,92.474c15.159,11.093,19.941,31.596,11.255,48.251l-24.084,46.181c-10.769,20.65-7.897,45.774,7.256,63.46l31.683,36.98
	c12.221,14.264,30.066,22.474,48.849,22.474h144.128c31.099,0,60.388-14.566,79.21-39.323
	c34.704-45.648,55.261-102.634,55.124-164.433C504.393,232.043,492.057,187.274,470.474,148.467z"/>
<path style="fill:#B9D8F4;" d="M279.989,459.076l-39.664-46.295c-18.97-22.141-22.566-53.594-9.084-79.446l30.151-57.814
	c10.874-20.851,4.887-46.518-14.09-60.405L89.108,99.348c-11.576-8.472-18.426-21.065-19.969-34.286
	c-20.021,15.3-37.849,33.327-52.924,53.528c-13.058,17.498-9.118,42.344,8.501,55.238l126.364,92.473
	c15.159,11.093,19.941,31.596,11.255,48.251l-24.084,46.181c-10.769,20.65-7.897,45.774,7.256,63.46l31.683,36.98
	c12.221,14.264,30.066,22.474,48.849,22.474h91.412C303.042,479.21,290.006,470.768,279.989,459.076z"/>
<g>
	<path style="fill:#96C8EF;" d="M347.61,262.369c-1.006-4.018,1.436-8.091,5.453-9.098l18.038-4.518
		c4.02-1.006,8.091,1.435,9.098,5.453c1.006,4.018-1.436,8.091-5.453,9.098l-18.038,4.518
		C352,268.673,348.463,265.775,347.61,262.369z"/>
	<path style="fill:#96C8EF;" d="M387.724,252.322c-1.006-4.018,1.436-8.091,5.453-9.098l41.054-10.282
		c4.014-1.003,8.091,1.435,9.098,5.453c1.006,4.018-1.436,8.091-5.453,9.098l-41.054,10.282
		C392,259.173,388.577,255.729,387.724,252.322z"/>
	<path style="fill:#96C8EF;" d="M504.499,279.89c-0.019-8.632-0.442-17.162-1.24-25.577L147.25,343.474l-9,17.258
		c-10.769,20.65-7.897,45.774,7.256,63.46l31.683,36.98c12.221,14.264,30.066,22.474,48.849,22.474h144.128
		c31.099,0,60.388-14.566,79.21-39.323C484.079,398.675,504.637,341.689,504.499,279.89z"/>
</g>
<path style="fill:#78B9EB;" d="M279.989,459.076l-39.664-46.295c-18.97-22.141-22.566-53.594-9.084-79.446l6.536-12.533
	l-90.527,22.672l-9,17.258c-10.769,20.65-7.897,45.774,7.256,63.46l31.683,36.98c12.221,14.264,30.066,22.474,48.849,22.474h91.412
	C303.042,479.21,290.006,470.768,279.989,459.076z"/>
<path style="fill:#FF3501;" d="M17.562,91.004l107.684,50.718c19.651,9.256,37.16,22.503,51.41,38.898l38.295,44.058
	c10.684,12.292,29.108,14.102,41.98,4.125l43.8-33.951c13.822-10.714,15.915-30.792,4.601-44.127l-22.991-27.096
	c-9.643-11.365-7.931-28.463,3.774-37.691l11.745-9.259c7.046-5.555,5.482-16.645-2.832-20.019
	c-41.625-16.891-150.98-50.034-276.682,2.247C4.273,64.758,3.773,84.509,17.562,91.004z"/>
<path style="fill:#CD2A00;" d="M280.107,199.599l-38.295-44.059c-14.25-16.395-31.758-29.642-51.41-38.898L82.718,65.924
	c-10.361-4.88-12.653-17.245-7.181-25.575c-18.542,4.38-37.669,10.436-57.192,18.556C4.273,64.758,3.773,84.509,17.562,91.004
	l107.684,50.718c19.651,9.256,37.16,22.503,51.41,38.898l38.295,44.059c10.684,12.292,29.108,14.102,41.98,4.125l30.072-23.31
	C284.482,203.917,282.152,201.952,280.107,199.599z"/>
<circle style="fill:#3E3D42;" cx="245.68" cy="168.921" r="20.457"/>
<path style="fill:#FF5023;" d="M184.726,374.056c-11.471,2.728-16.204,16.463-8.847,25.678l30.064,37.66
	c5.284,6.168,12.973,9.705,21.093,9.705h144.128c19.531,0,38.264-9.306,50.115-24.894c20.158-26.516,34.165-56.357,41.553-88.099
	c2.965-12.739-8.399-24.184-21.124-21.158L184.726,374.056z"/>
<path style="fill:#FF3501;" d="M271.841,402.903l183.596-43.658c2.931-8.226,5.41-16.612,7.395-25.14
	c2.965-12.739-8.399-24.184-21.124-21.158l-256.982,61.108c-11.471,2.728-16.204,16.463-8.847,25.678l30.064,37.66
	c5.284,6.168,12.972,9.705,21.093,9.705h50.74l-14.782-18.517C255.637,419.367,260.37,405.631,271.841,402.903z"/>
<path style="fill:#3E3D42;" d="M446.685,107.98c-14.717-0.877-39.296,3.007-51.829,35.02c-2.085,5.325,1.457,11.197,7.135,11.877
	c8.947,1.071,21.599,2.738,31.038,4.003c7.377,0.988,14.312-3.725,16.117-10.945l6.814-27.256
	C457.509,114.476,453.066,108.36,446.685,107.98z"/>
<path style="fill:#2D2D30;" d="M455.03,124.391l0.928-3.713c1.55-6.202-2.893-12.318-9.274-12.699
	c-14.717-0.877-39.296,3.007-51.829,35.02c-2.085,5.325,1.457,11.197,7.135,11.877c3.199,0.383,6.874,0.842,10.704,1.332
	C423.317,132.154,441.133,125.503,455.03,124.391z"/>
<path style="fill:#3E3D42;" d="M97.538,188.396l50.186,34.986c4.768,3.324,10.939-1.589,8.769-6.98l-9.581-23.807
	c-4.294-10.671-15.021-17.316-26.488-16.408l-20.004,1.583C94.948,178.203,93.034,185.257,97.538,188.396z"/>
<path style="fill:#2D2D30;" d="M150.712,202.037l-3.8-9.441c-4.294-10.671-15.021-17.316-26.488-16.409l-20.004,1.583
	c-5.473,0.433-7.386,7.487-2.883,10.627l23.055,16.072C121.441,203.794,148.46,201.613,150.712,202.037z"/>
<path d="M465.363,314.452c-8.03-11.113-23.454-9.262-25.392-8.801L182.99,366.759c-7.899,1.878-14.194,7.583-16.839,15.26
	s-1.2,16.048,3.866,22.394l30.064,37.66c0.054,0.068,0.109,0.135,0.166,0.201c6.71,7.833,16.475,12.325,26.789,12.325h144.127
	c21.858,0,42.825-10.413,56.086-27.855c20.772-27.325,35.202-57.92,42.888-90.938C471.892,328.266,469.873,320.693,465.363,314.452z
	 M455.527,332.405c-7.203,30.944-20.734,59.63-40.22,85.26c-10.441,13.734-26.943,21.934-44.145,21.934H227.036
	c-5.888,0-11.465-2.547-15.319-6.993l-29.977-37.55c-1.871-2.344-2.384-5.314-1.407-8.149s3.21-4.859,6.128-5.553l256.981-61.108
	c3.854-0.915,7.737,0.467,10.174,3.536C454.748,325.205,456.501,328.221,455.527,332.405z"/>
<path d="M401.099,162.323c9,1.077,21.789,2.764,30.934,3.99c0.976,0.131,1.968,0.197,2.949,0.197
	c10.156,0,18.974-6.892,21.439-16.757l6.814-27.257c1.285-5.143,0.224-10.542-2.913-14.815c-3.123-4.255-7.931-6.875-13.191-7.188
	c-1.343-0.08-2.699-0.121-4.032-0.121c-14.792,0-41.638,5.183-55.228,39.894c-1.842,4.708-1.406,9.902,1.196,14.249
	C391.676,158.875,396.062,161.72,401.099,162.323z M401.839,145.734c7.888-20.146,21.77-30.362,41.26-30.362
	c1.037,0,6.401,0.321,5.584,3.486l-6.814,27.256c-0.794,3.176-3.626,5.395-6.887,5.395c-0.317,0-22.988-3.234-32.101-4.081
	C401.688,147.318,401.696,146.1,401.839,145.734z"/>
<path d="M229.266,183.267c3.866-1.486,5.796-5.825,4.31-9.691c-0.568-1.479-0.857-3.044-0.857-4.65
	c0-7.145,5.813-12.957,12.957-12.957s12.957,5.813,12.957,12.957s-5.813,12.957-12.957,12.957c-4.142,0-7.5,3.358-7.5,7.5
	s3.358,7.5,7.5,7.5c15.416,0,27.957-12.542,27.957-27.957s-12.541-27.957-27.957-27.957s-27.957,12.542-27.957,27.957
	c0,3.453,0.625,6.828,1.856,10.032C221.06,182.823,225.399,184.754,229.266,183.267z"/>
<path d="M153.87,189.795c-5.181-12.873-17.49-21.191-31.359-21.191c-0.889,0-1.79,0.036-2.678,0.106l-20.004,1.583
	c-5.691,0.45-10.334,4.301-11.829,9.811c-1.495,5.51,0.565,11.18,5.249,14.445l50.186,34.986c2.279,1.588,4.914,2.428,7.621,2.428
	c4.443,0,8.601-2.226,11.119-5.954c2.497-3.696,2.962-8.218,1.276-12.408L153.87,189.795z M105.611,184.882
	c0,0,16.403-1.278,16.899-1.278c7.714,0,14.561,4.628,17.444,11.792l7.512,18.665L105.611,184.882z"/>
<path d="M478.375,147.274c0.993-4.826,3.185-15.406,5.413-25.75c4.323-20.066-4.45-40.707-21.831-51.362
	C396.912,30.287,336.243,13.916,296.802,7.203c-41.407-7.046-68.286-5.293-71.196-5.072c-49.272,0-101.535,22.324-102.037,22.712
	C86.629,28.37,50.398,37.451,15.465,51.981C6.162,55.85,0.238,64.506,0.007,74.572c-0.231,10.04,5.271,18.936,14.359,23.216
	l6.426,3.026c-3.662,4.332-7.215,8.769-10.587,13.288c-7.465,10.003-10.551,22.341-8.69,34.741
	c1.125,7.495,3.974,14.443,8.262,20.425l-0.148,8.859c-0.235,14.105,6.236,27.744,17.31,36.483l57.416,45.312l-52.233,95.109
	c-0.026,0.047-0.051,0.095-0.076,0.142c-12.254,23.497-9.031,51.684,8.21,71.808l31.683,36.979
	c13.664,15.948,33.544,25.095,54.544,25.095h34.503c12.462,13.503,29.801,21.167,48.397,21.167h172.21
	c15.362,0,29.586-8.318,37.118-21.708l7.494-13.322c11.147-6.849,21.085-15.732,29.142-26.33
	c37.2-48.931,56.791-107.367,56.653-168.989C511.897,233.413,500.278,187.629,478.375,147.274z M15.003,74.918
	c0.095-4.109,2.421-7.506,6.223-9.087c44.14-18.358,90.422-27.667,137.563-27.667c61.529,0,110,15.942,133.417,25.445
	c2.015,0.817,2.469,2.572,2.57,3.289c0.103,0.72,0.154,2.539-1.561,3.891l-11.745,9.259c-7.274,5.734-11.789,13.969-12.712,23.186
	s1.869,18.183,7.862,25.247l22.991,27.096c4.136,4.874,6.048,11.06,5.385,17.417s-3.811,12.015-8.862,15.931l-43.8,33.951
	c-4.106,3.183-9.016,4.865-14.198,4.864c-6.729,0-13.117-2.909-17.526-7.981L182.315,175.7
	c-15.026-17.288-33.152-31.002-53.875-40.763L20.757,84.218C17.06,82.477,14.909,79,15.003,74.918z M83.329,454.203l-31.683-36.979
	c-13.216-15.426-15.699-37.023-6.337-55.043l50.984-92.834l25.963,20.49c6.096,4.811,8.255,13.172,5.252,20.334l-23.622,56.314
	c-8.249,19.665-5.394,42.455,7.452,59.478c0.026,0.034,0.052,0.068,0.078,0.102l37.524,47.994h-22.457
	C109.868,474.057,94.139,466.82,83.329,454.203z M443.404,439.784c-17.31,22.769-44.688,36.362-73.239,36.362H226.038
	c-16.615,0-32.343-7.236-43.153-19.854l-31.683-36.98c-13.233-15.445-15.707-37.078-6.301-55.112l24.084-46.181
	c10.479-20.092,4.811-44.389-13.476-57.771l-38.679-28.306c-3.342-2.446-8.036-1.721-10.481,1.623
	c-2.446,3.343-1.72,8.035,1.623,10.481l38.679,28.306c12.26,8.972,16.059,25.26,9.034,38.73l-24.084,46.181
	c-12.254,23.497-9.032,51.684,8.21,71.808l31.683,36.98c13.664,15.948,33.544,25.095,54.544,25.095h144.127
	c10.857,0,21.565-1.7,31.769-4.899c-5.163,5.637-12.519,8.977-20.342,8.977h-172.21c-15.794,0-30.432-7.136-40.16-19.579
	l-45.948-58.768c-9.609-12.771-11.739-29.851-5.556-44.591l23.622-56.314c5.601-13.352,1.574-28.941-9.792-37.911l-95.317-75.223
	c-6.125-4.833-10.142-11.904-11.274-19.54l38.3,28.028c3.993,2.681,9.013,0.384,10.481-1.623c2.446-3.343,1.72-8.036-1.623-10.481
	l-42.97-31.445c-6.971-5.102-11.517-12.615-12.798-21.156c-1.262-8.412,0.826-16.773,5.878-23.543
	c3.99-5.347,8.231-10.583,12.634-15.634l87.19,41.066c18.826,8.867,35.293,21.327,48.945,37.032l38.295,44.059
	c7.259,8.351,17.773,13.141,28.847,13.141c0,0,0,0,0.001,0c8.541,0,16.628-2.77,23.388-8.009l43.8-33.951
	c8.318-6.448,13.5-15.763,14.592-26.231c1.092-10.467-2.058-20.651-8.866-28.677l-22.991-27.096
	c-3.334-3.93-4.888-8.919-4.374-14.048c0.514-5.128,3.025-9.71,7.073-12.901l11.745-9.259c5.434-4.284,8.098-10.93,7.124-17.779
	c-0.972-6.843-5.376-12.48-11.78-15.079c-22.327-9.06-66.48-23.724-122.827-26.183c16.712-3.788,33.818-5.933,51.19-6.406
	c0.136-0.003,0.279-0.012,0.415-0.022c0.267-0.022,26.996-2.088,68.238,4.992c38.005,6.524,96.483,22.379,159.256,60.86
	c11.961,7.332,17.991,21.564,15.007,35.415c-3.02,14.014-5.97,28.458-5.999,28.603c-0.358,1.755-0.076,3.58,0.794,5.146
	c21.542,38.733,32.981,82.923,33.08,127.794C497.129,338.21,478.597,393.495,443.404,439.784z"/>
<path d="M100.006,219.631l-11.385-8.332c-3.343-2.447-8.035-1.721-10.481,1.623c-2.446,3.343-1.72,8.036,1.623,10.481l11.385,8.332
	c5.103,3.504,9.013,0.384,10.481-1.623C104.075,226.77,103.349,222.077,100.006,219.631z"/>
<g>
</g>
<g>
</g>
<g>
</g>
<g>
</g>
<g>
</g>
<g>
</g>
<g>
</g>
<g>
</g>
<g>
</g>
<g>
</g>
<g>
</g>
<g>
</g>
<g>
</g>
<g>
</g>
<g>
</g>
</svg>
