<svg id="Capa_1" enable-background="new 0 0 512 512" height="512" viewBox="0 0 512 512" width="512" xmlns="http://www.w3.org/2000/svg"><path d="m283.18 31.666c-9.166 0-18.237.551-27.18 1.617l-20.016 387.003 243.967-20.016c20.353-34.196 32.049-74.145 32.049-116.831v-22.953c0-126.374-102.446-228.82-228.82-228.82z" fill="#2d2d2d"/><path d="m256 33.283c-83.91 10.009-156.391 65.833-186.808 146.158l-3.603 63.797-43.635 63.797-21.954 59.301 4.082 33.934 251.918 20.016z" fill="#3f4a4a"/><path d="m21.953 307.034h140.227c35.234 0 63.796-28.563 63.796-63.796s-28.563-63.796-63.796-63.796h-92.988z" fill="#e1ebf0"/><path d="m235.984 450.31 222.657-20.016c7.874-9.396 15.007-19.434 21.309-30.024h-223.95z" fill="#ff7037"/><path d="m256 400.27h-251.918l3.611 30.024 248.307 20.016z" fill="#ff9f22"/><path d="m256 480.334h143.798c22.347-13.265 42.24-30.228 58.843-50.04h-202.641l-20.016 25.02z" fill="#ff9f22"/><path d="m7.693 430.294 6.019 50.04h242.288v-50.04z" fill="#ffda44"/></svg>